<?xml version="1.0" encoding="utf-8"?>
<!-- Generator: Adobe Illustrator 28.0.0, SVG Export Plug-In . SVG Version: 6.00 Build 0)  -->
<svg version="1.1" id="Layer_1" xmlns="http://www.w3.org/2000/svg" xmlns:xlink="http://www.w3.org/1999/xlink" x="0px" y="0px"
	 viewBox="0 0 1920 1080" style="enable-background:new 0 0 1920 1080;" xml:space="preserve">
<style type="text/css">
	.st0{fill:#231F20;}
	.st1{fill:#D41B2C;}
</style>
<path class="st0" d="M1078.12,484.26l-67.26-58.88l30.42-22.88l-80.28,2.21l9.11-25.37l-31.76,23.48c0,0-9.09-14.69-19.21-24.5
	c-6.05-5.86-9.8-6.84-12.79-9.09c-3.86-2.91-3.82-10.26-12.82-8.89c-6.88,1.05-7.83,9.24-5.73,12.45s4.53,4.74,6.77,4.67
	s8.52-1.07,12.08,0.47c3.56,1.53,8.5,5.39,14.36,11.67s12,14.79,12,14.79l-38.09-0.98l22.58,15.53l-66.95,44.67l38.16,0.91
	l-20.09,86.93l56.58-60.98l71.58,99.42l-0.42-121.81L1078.12,484.26z M928.91,475.43l-43.16,46.14l15.26-65.95l-28.93-0.74
	l51.35-34.42l-17.09-11.25l30.77,0.37l2.57,8.28c0,0-5.01,7.96-14.04,16.24c-6.69,6.14-20.58,12.86-20.58,12.86l0.69,1.7
	c0,0,13.67-6.81,21.3-13.67c7.44-6.7,13.39-15.26,13.39-15.26l3.72,12.19c0,0-3.89,9.23-11.63,21.49
	c-6.37,10.09-22.42,30.6-22.42,30.6l1.26,1.05c0,0,14.47-18.35,21.81-29.33c7.35-10.98,12.2-21.59,12.2-21.59l19.98,61.17l1.98,0.04
	l-20.26-61.59c0,0,12.7,7.84,24.14,11.36c15.88,4.88,29.86,4.28,29.86,4.28v-1.77c0,0-11.14,0.86-25.95-3.26
	c-16.69-4.64-29.1-13.49-29.1-13.49l-3.48-11.02c0,0,7.25,1.81,21.28,1.63c11.7-0.16,23.86-2.88,23.86-2.88l-0.08-1.51
	c0,0-11.02,2.67-24,3.03c-14.01,0.39-21.84-2.03-21.84-2.03l-2.72-9.42l23.71-17.87l-7.16,19.16l61.3-1.67l-22.79,17.58l51.35,44.65
	l-62.51-12.47l0.19,93.21L928.91,475.43z"/>
<path class="st1" d="M845.17,597.15l66.61,58.44l-29.99,23.05l80.55-2.83l-8.8,25.31l31.87-23.65c0,0,9.19,14.51,19.34,24.15
	c6.07,5.76,9.8,6.7,12.8,8.9c3.87,2.85,3.9,10.16,12.83,8.7c6.83-1.11,7.69-9.09,5.58-12.26c-2.11-3.17-5.12-4.84-7.34-4.74
	c-2.22,0.09-7.81,1.12-11.36-0.37c-3.55-1.49-8.5-5.27-14.39-11.45s-12.07-14.57-12.07-14.57l37.9,0.75l-22.6-15.21l66.93-45.93
	l-38.7-0.77l19.61-86.33l-56.9,61.9l-71.87-99.75l1.38,122.13L845.17,597.15z M994,604.7l42.32-46.18l-14.87,66.1l28.75,0.44
	l-50.13,34.35l17.14,11.76l-30.35-0.54l-3.43-8.61c0,0,7.03-9.54,15.91-17.86c6.59-6.17,18.81-11.14,18.81-11.14l-0.3-1.7
	c0,0-13.43,5.96-20.31,12.33c-7.5,6.94-14.57,16.7-14.57,16.7l-4.11-11.86c0,0,4.33-10.52,12.15-22.61
	c3.72-5.75,21.12-29.6,21.12-29.6l-1.2-1.05c0,0-13.72,18.2-20.91,29.18c-7.19,10.98-11.86,21.98-11.86,21.98l-20.87-61.16
	l-1.48,0.14l20.96,61.99c0,0-7.48-6.9-25.16-11.74c-16.26-4.45-29.02-4.26-29.02-4.26l0.08,1.54c0,0,10.95-0.74,28.38,4.02
	c15.87,4.34,26.33,12.28,26.33,12.28l3.83,11.21c0,0-8.4-1.83-22.33-1.5c-11.62,0.27-22.7,2.8-22.7,2.8l0.31,1.76
	c0,0,9.47-2.39,22.64-3.02c12.36-0.59,22.68,1.74,22.68,1.74l3.18,8.72l-24.25,18.76l6.92-19.11l-60.89,2.29l22.82-18.21
	l-51.83-43.98L940,622.97l-1.16-93.92L994,604.7z"/>
</svg>
