<svg width="62" height="54" viewBox="0 0 62 54" fill="none" xmlns="http://www.w3.org/2000/svg">
<path d="M29.9598 1.10355e-06C33.5288 1.10355e-06 36.4216 2.8915 36.4216 6.45834C36.4216 8.45569 35.5144 10.2413 34.0893 11.4259C33.9864 11.5284 33.8793 11.6281 33.7684 11.7248L22.4232 21.5946L34.2858 31.0592C37.0748 33.2846 37.5308 37.3481 35.3044 40.1358C33.0779 42.9233 29.012 43.379 26.2229 41.1538L12.9238 30.5432V35.8145C12.9238 39.3811 10.0307 42.2727 6.46191 42.2727C2.8931 42.2727 0 39.3814 0 35.8145V8.53586C0 8.15924 0.0322542 7.79014 0.0941526 7.4312C0.71589 3.22663 4.34159 0 8.72133 0L29.9598 1.10355e-06Z" fill="black"/>
<path d="M55.0989 50.0353V44.8101V42.3123V39.5625H58.2861V42.3123H60.8084V44.8101H58.2861V49.8518C58.2861 50.4477 58.6987 50.8829 59.2949 50.8829H60.8084V53.7706H59.02C56.7497 53.7706 55.0989 52.2123 55.0989 50.0353Z" fill="black"/>
<path d="M50.4318 48.638V53.7713H47.2447V42.3133H50.4318V44.1924C51.1426 42.8861 52.3808 42.1069 53.8942 42.1069H54.4673V45.0859H53.8942C51.7617 45.0859 50.4318 46.461 50.4318 48.638Z" fill="black"/>
<path d="M46.368 45.9792V53.7706H43.1809V52.6935C42.4244 53.4955 41.3007 53.9998 39.9709 53.9998C37.7238 53.9998 36.1418 52.5791 36.1418 50.4937C36.1418 48.3166 37.9075 46.8959 40.5672 46.8959H43.1809V46.048C43.1809 45.2917 42.5161 44.8105 41.5072 44.8105C40.4983 44.8105 39.7644 45.2917 39.7644 46.002H36.5316C36.5316 43.7334 38.6639 42.0835 41.5072 42.0835C44.3274 42.0835 46.368 43.7334 46.368 45.9792ZM43.1809 49.0498H41.0026C40.0397 49.0498 39.3978 49.4854 39.3978 50.1957C39.3978 50.9289 40.0857 51.3872 41.1862 51.3872C42.3556 51.3872 43.158 50.8145 43.1809 49.9894V49.0498Z" fill="black"/>
<path d="M30.2252 50.0353V44.8101H28.4138V42.3123H30.2252V39.5625H33.4124V42.3123H35.9344V44.8101H33.4124V49.8518C33.4124 50.4477 33.825 50.8829 34.4212 50.8829H35.9344V53.7706H34.1459C31.8761 53.7706 30.2252 52.2123 30.2252 50.0353Z" fill="black"/>
<path d="M28.7129 50.1958C28.7129 52.5104 26.8556 53.9771 23.9437 53.9771C20.94 53.9771 18.9452 52.4417 18.9452 50.1042H21.7654C21.7884 50.9062 22.5679 51.3874 23.829 51.3874C24.9984 51.3874 25.6633 50.975 25.6633 50.3334C25.6633 49.8291 25.1818 49.5311 23.8519 49.3251L22.9806 49.1647C20.1833 48.6835 19.0828 47.744 19.0828 45.8418C19.0828 43.5731 20.8254 42.1064 23.5768 42.1064C26.42 42.1064 28.3231 43.6419 28.3231 45.9565H25.5257C25.5028 45.1542 24.815 44.6959 23.6915 44.6959C22.7284 44.6959 22.1323 45.0626 22.1323 45.7042C22.1323 46.2313 22.6138 46.5293 23.9895 46.7585L24.8608 46.9189C27.6123 47.4001 28.7129 48.3168 28.7129 50.1958Z" fill="black"/>
<path d="M6.80402 48.0415C6.80402 44.5354 9.23449 42.0835 12.7196 42.0835C16.2736 42.0835 18.6353 44.4437 18.6353 47.9727V49.0042H10.037C10.4039 50.4021 11.5274 51.2728 13.0406 51.2728C14.2559 51.2728 15.2647 50.7457 15.4482 49.9665H18.4518C18.1538 52.3499 15.9297 53.9998 12.9948 53.9998C9.32618 53.9998 6.80402 51.5476 6.80402 48.0415ZM10.1058 46.85H15.4482C15.0813 45.5896 14.0954 44.8105 12.7884 44.8105C11.4586 44.8105 10.4726 45.5896 10.1058 46.85Z" fill="black"/>
<path d="M3.1871 48.6376V53.7708H0V42.3128H3.1871V44.1919C3.89791 42.8856 5.13606 42.1064 6.64935 42.1064H7.22258V45.0854H6.64935C4.51697 45.0854 3.1871 46.4605 3.1871 48.6376Z" fill="black"/>
</svg>
