<svg width="130" height="55" viewBox="0 0 130 55" fill="none" xmlns="http://www.w3.org/2000/svg">
<g clip-path="url(#clip0_1474_2350)">
<path d="M72.499 0.0058638C73.8054 2.95301 73.1405 6.5465 71.0997 8.98811C70.2334 10.0246 69.0854 10.6641 68.1761 11.639C69.3211 12.3782 71.0401 12.3117 72.1773 11.596C73.1854 10.9614 73.7839 9.7381 74.658 8.91771C78.0775 5.71046 83.6305 5.73491 87.0138 8.98811C88.2791 10.2045 88.72 11.8825 90.8468 12.1269C94.2535 12.518 94.6691 9.78993 96.9562 8.19413C100.412 5.7838 105.1 5.95687 108.222 8.85024C109.53 10.0618 110.124 11.8883 112.197 12.1269C115.636 12.521 115.985 9.86424 118.221 8.24888C121.62 5.7926 126.316 5.94318 129.43 8.78277V15.6099C126.848 14.5539 126.679 11.3808 123.397 11.4688C120.834 11.5373 120.3 13.5927 118.686 14.9851C115.276 17.9283 110.047 17.8687 106.751 14.7778C105.257 13.3766 104.663 11.46 102.15 11.46C99.5504 11.46 98.9441 13.578 97.3376 14.9841C93.9964 17.9097 88.8579 17.8481 85.5412 14.9166C83.9542 13.5144 83.3812 11.46 80.8007 11.46C78.2202 11.46 77.6795 13.4626 76.1277 14.8453C75.0687 15.7888 72.588 17.1422 71.1721 17.1422H69.149L71.0342 18.8123C73.8142 22.1427 73.8973 26.9643 71.1056 30.3114C70.0241 31.608 68.223 32.3404 67.6852 34.0017C67.1141 35.7647 67.7312 37.2393 69.0092 38.4586H63.0093C62.0539 35.5144 62.446 32.1986 64.4075 29.7541C65.9867 27.7857 68.6474 27.1188 68.1379 23.9321C67.8084 21.868 66.3114 21.5101 65.0949 20.2829C61.6364 16.7921 61.6452 11.0386 65.1507 7.57614C66.2429 6.49761 67.473 6.19937 67.9932 4.49308C68.5398 2.6978 67.8602 1.27801 66.637 0.00390625H72.497L72.499 0.0058638Z" fill="black"/>
<path d="M1.05567 24.3881C4.23749 23.4915 7.49852 23.8885 10.0516 26.0641C11.5516 27.3421 12.0992 29.3046 14.3804 29.5432C17.7158 29.8923 18.1998 26.9979 20.4888 25.4696C23.8105 23.2519 28.2684 23.4211 31.3368 25.9879C32.4446 26.9148 33.2074 28.537 34.4492 29.1491C35.9208 29.8747 37.6897 29.6117 38.9393 28.5673C39.1789 28.3669 39.1965 28.0853 39.4273 28.01V34.0011C36.2914 35.1618 32.5053 34.4264 30.0754 32.1237C28.6028 30.7283 28.2234 28.9203 25.6752 28.8421C23.082 28.7629 22.4386 30.8672 20.8712 32.2615C17.395 35.3524 12.0219 35.3006 8.65528 32.0542C7.56501 31.0031 7.11326 29.6146 5.49203 29.0817C3.75249 28.5106 2.27109 29.1159 1.05469 30.3783V24.3872L1.05567 24.3881Z" fill="black"/>
<path d="M1.47418 20.487L3.28804 5.15968L7.82903 5.15088L11.8694 14.358L15.5861 5.17923L20.2512 5.29071L22.1257 20.487H18.1489L17.0323 11.4295L13.4104 20.4968L9.9157 20.3481L6.35937 11.5703L5.5204 20.487H1.47418Z" fill="black"/>
<path d="M46.6846 36.7882V46.1234H42.4986V23.1349H46.6846V24.8069C51.6109 20.5466 58.7451 23.6228 59.1098 30.1644C59.5136 37.3954 52.3345 41.3409 46.6846 36.7891V36.7882ZM47.8502 27.9203C43.9516 31.813 50.2449 37.5958 53.8726 33.446C57.2607 29.5699 51.4906 24.2858 47.8502 27.9203Z" fill="black"/>
<path d="M118.127 23.1343V32.1908L125.174 23.1343H129.29V38.4606H125.104V29.4041L118.058 38.4606H113.941V23.1343H118.127Z" fill="black"/>
<path d="M35.6607 20.4873L35.5913 18.8162C32.4075 22.0762 24.275 21.7633 25.067 15.8319C25.3476 13.7344 27.8773 12.5845 29.6901 12.0888C30.9232 11.7514 34.2927 11.4688 35.0945 10.9359C36.0714 10.2867 35.3879 8.92944 34.3798 8.59893C31.8218 7.76094 28.9137 9.11229 27.3629 11.1598C27.1635 11.4229 27.2495 11.8072 26.8721 11.7084L24.4207 8.77983L24.4109 8.50115C27.0305 4.8226 33.9192 3.29915 37.5411 6.13972C38.8816 7.19088 39.7069 9.2619 39.7069 10.9428V20.278L39.4977 20.4873H35.6607ZM35.5209 13.5213C34.2399 14.1696 32.7986 14.2781 31.4453 14.6751C30.489 14.9557 28.636 15.4574 29.3127 16.8654C30.0089 18.3155 35.2187 16.6073 35.5131 14.6966C35.5707 14.3221 35.4964 13.9036 35.5209 13.5223V13.5213Z" fill="black"/>
<path d="M58.6845 5.16113V20.2782L58.4752 20.4875H54.4984V9.06263H49.2661C49.1283 9.15064 49.0852 9.25526 49.0569 9.41074C48.8496 10.5391 49.1292 12.4723 49.0627 13.7356C48.9894 15.1183 48.7547 17.2812 48.1055 18.4927C47.0103 20.5354 44.8982 20.8649 42.8086 20.3173L41.9413 16.587C44.6381 17.6567 45.0292 15.2591 45.1554 13.1783C45.3167 10.5215 44.9139 7.79636 45.2893 5.16113H58.6845Z" fill="black"/>
<path d="M99.7079 23.1343V28.8467L105.778 23.1343H110.872L103.346 30.5696L111.429 38.4606H105.778L100.128 32.9555L99.7079 32.7482V38.4606H95.5219V23.1343H99.7079Z" fill="black"/>
<path d="M80.5915 23.1343V27.8014C80.5915 27.9706 81.0452 28.8174 81.2378 28.967C82.4161 29.8832 85.198 29.5067 86.4516 28.9161V23.1343H90.6376V38.4606H86.4516V32.7482C83.2345 33.6312 78.2496 33.5158 76.8572 29.8587C76.7291 29.5214 76.4055 28.5133 76.4055 28.2199V23.1343H80.5915Z" fill="black"/>
<path d="M57.6382 44.173C59.2428 44.439 59.8041 46.3526 58.7608 47.5259C58.5398 47.7743 58.1741 47.7098 58.267 48.0716C59.9723 48.3659 60.1874 50.7351 58.8175 51.6201C58.5378 51.801 57.5052 52.1148 57.2197 52.1148H53.4522L53.2429 51.9056V44.173C54.5737 44.3285 56.369 43.9628 57.6382 44.173ZM54.0799 47.656H57.3595C58.3393 47.656 58.9377 45.7639 57.8426 45.0843C57.7047 44.9983 57.0427 44.7303 56.941 44.7303H54.2902L54.0809 44.9396V47.656H54.0799ZM54.0799 51.4177H57.3595C58.7392 51.4177 59.5039 49.3408 58.2024 48.625C58.0958 48.5663 57.561 48.3522 57.4984 48.3522H54.0799V51.4177Z" fill="black"/>
<path d="M80.8712 46.1235V50.7212L84.6974 46.2536L85.6156 46.1235V52.1146H84.7776V47.3781L80.8086 51.9826L80.3852 52.1254L80.0332 51.9064V46.1235H80.8712Z" fill="black"/>
<path d="M88.685 46.1235V51.2092L88.8942 51.4184H92.3127V46.1235H93.1497V51.2092C93.3756 51.524 93.7872 51.4096 94.1265 51.4184V53.508H93.4284V52.1146H88.0562L87.847 51.9054V46.1235H88.684H88.685Z" fill="black"/>
<path d="M73.1963 46.1235V48.7715H76.9639V46.1235H77.8009V52.1146H76.9639V49.4677H73.1963V52.1146L72.3593 51.9064V46.1235H73.1963Z" fill="black"/>
<path d="M65.5214 46.1235V48.7715H69.2889V46.1235H70.1269V51.9064L69.2889 52.1146V49.4677H65.5214V52.1146L64.6844 51.9064V46.1235H65.5214Z" fill="black"/>
<path d="M96.4987 46.1235H95.6617V52.1146H96.4987V46.1235Z" fill="black"/>
<path d="M62.452 46.1235V51.9054C62.2594 52.187 61.9152 52.1195 61.615 52.1146V46.1235H62.452Z" fill="black"/>
<path d="M62.4314 44.7091C61.6883 45.1736 61.0224 44.0491 61.7538 43.6814C62.5595 43.2766 62.7893 44.4852 62.4314 44.7091Z" fill="black"/>
<path d="M95.9013 43.6356C96.7979 43.3862 97.0287 45.0407 95.9003 44.7053C95.385 44.5518 95.4006 43.7754 95.9013 43.6356Z" fill="black"/>
</g>
<defs>
<clipPath id="clip0_1474_2350">
<rect width="129.14" height="54.2605" fill="white" transform="translate(0.672668)"/>
</clipPath>
</defs>
</svg>
