<svg width="39" height="37" viewBox="0 0 39 37" fill="none" xmlns="http://www.w3.org/2000/svg">
<path d="M6.3375 29.2109C2.8374 29.2109 0 26.3773 0 22.8819V6.32903C0 2.8336 2.8374 0 6.3375 0H32.6625C36.1626 0 39 2.8336 39 6.32903V22.8819C39 26.3773 36.1626 29.2109 32.6625 29.2109H21.4743L11.6974 36.5149C10.6194 37.3201 9.09187 37.1002 8.28557 36.0236C7.97035 35.6027 7.8 35.0912 7.8 34.566L7.79847 29.2109H6.3375ZM20.5014 26.2898H32.6625C34.5472 26.2898 36.075 24.764 36.075 22.8819V6.32903C36.075 4.44687 34.5472 2.92109 32.6625 2.92109H6.3375C4.45283 2.92109 2.925 4.44687 2.925 6.32903V22.8819C2.925 24.764 4.45283 26.2898 6.3375 26.2898H10.7226L10.7231 27.7499L10.7247 33.5936L20.5014 26.2898Z" fill="white"/>
</svg>
