<svg width="40" height="40" viewBox="0 0 40 40" fill="none" xmlns="http://www.w3.org/2000/svg">
<path d="M21.0163 3.68301C20.4163 3.21634 19.583 3.21634 18.983 3.68301C15.8164 6.09967 6.46631 13.983 6.51631 23.1663C6.51631 30.5997 12.5664 36.6663 20.0164 36.6663C27.4664 36.6663 33.5163 30.6163 33.5163 23.183C33.533 14.133 24.1663 6.11634 21.0163 3.68301Z" fill="#A1DF9B"/>
<path d="M21.0163 3.68301C20.4163 3.21634 19.583 3.21634 18.983 3.68301C15.8164 6.09967 6.46631 13.983 6.51631 23.1663C6.51631 30.5997 12.5664 36.6663 20.0164 36.6663C27.4664 36.6663 33.5163 30.6163 33.5163 23.183C33.533 14.133 24.1663 6.11634 21.0163 3.68301Z" fill="black" fill-opacity="0.2"/>
<path d="M21.0163 3.68301C20.4163 3.21634 19.583 3.21634 18.983 3.68301C15.8164 6.09967 6.46631 13.983 6.51631 23.1663C6.51631 30.5997 12.5664 36.6663 20.0164 36.6663C27.4664 36.6663 33.5163 30.6163 33.5163 23.183C33.533 14.133 24.1663 6.11634 21.0163 3.68301Z" stroke="white" stroke-width="4" stroke-miterlimit="10"/>
<path d="M20 3.33301V36.6663" stroke="white" stroke-width="4" stroke-linecap="round" stroke-linejoin="round"/>
<path d="M20 31.5995L32.8334 25.3662" stroke="white" stroke-width="4" stroke-linecap="round" stroke-linejoin="round"/>
<path d="M20 23.2665L32.2833 17.2998" stroke="white" stroke-width="4" stroke-linecap="round" stroke-linejoin="round"/>
<path d="M20 14.9329L28.3834 10.8496" stroke="white" stroke-width="4" stroke-linecap="round" stroke-linejoin="round"/>
</svg>
