<svg width="38" height="38" viewBox="0 0 38 38" fill="none" xmlns="http://www.w3.org/2000/svg">
<path d="M13.6667 35.3333H23.6667C32 35.3333 35.3333 32 35.3333 23.6667V13.6667C35.3333 5.33333 32 2 23.6667 2H13.6667C5.33333 2 2 5.33333 2 13.6667V23.6667C2 32 5.33333 35.3333 13.6667 35.3333Z" fill="#19B6FB" stroke="black" stroke-width="4" stroke-linecap="round" stroke-linejoin="round"/>
<path d="M10.332 12.4165C11.9987 14.0832 14.7154 14.0832 16.3987 12.4165H10.332Z" fill="#19B6FB"/>
<path d="M10.332 12.4165C11.9987 14.0832 14.7154 14.0832 16.3987 12.4165" stroke="black" stroke-width="4" stroke-miterlimit="10" stroke-linecap="round" stroke-linejoin="round"/>
<path d="M20.9326 12.4165C22.5993 14.0832 25.316 14.0832 26.9993 12.4165H20.9326Z" fill="#19B6FB"/>
<path d="M20.9326 12.4165C22.5993 14.0832 25.316 14.0832 26.9993 12.4165" stroke="black" stroke-width="4" stroke-miterlimit="10" stroke-linecap="round" stroke-linejoin="round"/>
<path d="M26.166 21.833C26.166 25.983 22.816 29.333 18.666 29.333C14.516 29.333 11.166 25.983 11.166 21.833" stroke="black" stroke-width="4" stroke-miterlimit="10" stroke-linecap="round" stroke-linejoin="round"/>
</svg>
