<svg width="40" height="40" viewBox="0 0 40 40" fill="none" xmlns="http://www.w3.org/2000/svg">
<path d="M27.5335 9.41699L22.3669 5.41699C21.7002 4.75033 20.2002 4.41699 19.2002 4.41699H12.8669C10.8669 4.41699 8.70021 5.91699 8.20021 7.91699L4.20021 20.0837C3.36687 22.417 4.86687 24.417 7.36687 24.417H14.0335C15.0335 24.417 15.8669 25.2503 15.7002 26.417L14.8669 31.7503C14.5335 33.2503 15.5335 34.917 17.0335 35.417C18.3669 35.917 20.0335 35.2503 20.7002 34.2503L27.5335 24.0837" fill="#F75A5A"/>
<path d="M27.5335 9.41699L22.3669 5.41699C21.7002 4.75033 20.2002 4.41699 19.2002 4.41699H12.8669C10.8669 4.41699 8.70021 5.91699 8.20021 7.91699L4.20021 20.0837C3.36687 22.417 4.86687 24.417 7.36687 24.417H14.0335C15.0335 24.417 15.8669 25.2503 15.7002 26.417L14.8669 31.7503C14.5335 33.2503 15.5335 34.917 17.0335 35.417C18.3669 35.917 20.0335 35.2503 20.7002 34.2503L27.5335 24.0837" stroke="black" stroke-width="4" stroke-miterlimit="10"/>
<path d="M36.0326 9.41667V25.75C36.0326 28.0833 35.0326 28.9167 32.6992 28.9167H31.0326C28.6992 28.9167 27.6992 28.0833 27.6992 25.75V9.41667C27.6992 7.08333 28.6992 6.25 31.0326 6.25H32.6992C35.0326 6.25 36.0326 7.08333 36.0326 9.41667Z" fill="#F75A5A" stroke="black" stroke-width="4" stroke-linecap="round" stroke-linejoin="round"/>
</svg>
