<svg width="38" height="34" viewBox="0 0 38 34" fill="none" xmlns="http://www.w3.org/2000/svg">
<path d="M3.8448 16.2698L13.4712 29.2075C16.2416 32.9308 21.5084 32.9308 24.2788 29.2075L33.9052 16.2698C36.3649 12.964 36.3649 8.26658 33.9052 4.96074C30.3045 0.12144 21.9821 1.55871 18.875 6.77854C15.7679 1.55871 7.44552 0.121441 3.84481 4.96074C1.38507 8.26658 1.38506 12.964 3.8448 16.2698Z" fill="#E23636"/>
<path d="M3.8448 16.2698L13.4712 29.2075C16.2416 32.9308 21.5084 32.9308 24.2788 29.2075L33.9052 16.2698C36.3649 12.964 36.3649 8.26658 33.9052 4.96074C30.3045 0.12144 21.9821 1.55871 18.875 6.77854C15.7679 1.55871 7.44552 0.121441 3.84481 4.96074C1.38507 8.26658 1.38506 12.964 3.8448 16.2698Z" fill="black" fill-opacity="0.2"/>
<path d="M3.8448 16.2698L13.4712 29.2075C16.2416 32.9308 21.5084 32.9308 24.2788 29.2075L33.9052 16.2698C36.3649 12.964 36.3649 8.26658 33.9052 4.96074C30.3045 0.12144 21.9821 1.55871 18.875 6.77854C15.7679 1.55871 7.44552 0.121441 3.84481 4.96074C1.38507 8.26658 1.38506 12.964 3.8448 16.2698Z" stroke="black" stroke-width="4" stroke-linecap="round" stroke-linejoin="round"/>
</svg>
