<svg width="52" height="51" viewBox="0 0 52 51" fill="none" xmlns="http://www.w3.org/2000/svg">
<circle cx="25.7851" cy="25.7854" r="15.1255" fill="#A1DF9B" stroke="black" stroke-width="4"/>
<path d="M25.785 2L25.785 9.9919" stroke="black" stroke-width="4" stroke-linecap="round"/>
<path d="M42.8539 9.80182L37.2028 15.4529" stroke="black" stroke-width="4" stroke-linecap="round"/>
<path d="M8.65955 9.80182L14.3107 15.4529" stroke="black" stroke-width="4" stroke-linecap="round"/>
<path d="M8.65955 41.7119L14.3107 36.0608" stroke="black" stroke-width="4" stroke-linecap="round"/>
<path d="M42.8539 41.7119L37.2028 36.0608" stroke="black" stroke-width="4" stroke-linecap="round"/>
<path d="M49.9514 25.7854L41.9595 25.7854" stroke="black" stroke-width="4" stroke-linecap="round"/>
<path d="M9.99194 25.7854L2.00004 25.7854" stroke="black" stroke-width="4" stroke-linecap="round"/>
<path d="M25.785 41.0081L25.785 49" stroke="black" stroke-width="4" stroke-linecap="round"/>
<circle cx="21.7883" cy="20.6483" r="2.85425" fill="black"/>
<circle cx="32.0641" cy="26.3568" r="2.85425" fill="black"/>
<circle cx="21.7883" cy="32.0653" r="2.85425" fill="black"/>
<circle cx="25.7851" cy="25.7854" r="15.1255" fill="#A1DF9B" stroke="black" stroke-width="4"/>
<path d="M25.785 2L25.785 9.9919" stroke="black" stroke-width="4" stroke-linecap="round"/>
<path d="M42.8539 9.80182L37.2028 15.4529" stroke="black" stroke-width="4" stroke-linecap="round"/>
<path d="M8.65955 9.80182L14.3107 15.4529" stroke="black" stroke-width="4" stroke-linecap="round"/>
<path d="M8.65955 41.7119L14.3107 36.0608" stroke="black" stroke-width="4" stroke-linecap="round"/>
<path d="M42.8539 41.7119L37.2028 36.0608" stroke="black" stroke-width="4" stroke-linecap="round"/>
<path d="M49.9514 25.7854L41.9595 25.7854" stroke="black" stroke-width="4" stroke-linecap="round"/>
<path d="M9.99194 25.7854L2.00004 25.7854" stroke="black" stroke-width="4" stroke-linecap="round"/>
<path d="M25.785 41.0081L25.785 49" stroke="black" stroke-width="4" stroke-linecap="round"/>
<circle cx="25.7851" cy="25.7854" r="15.1255" fill="#A1DF9B" stroke="black" stroke-width="4"/>
<path d="M25.785 2L25.785 9.9919" stroke="black" stroke-width="4" stroke-linecap="round"/>
<path d="M42.8539 9.80182L37.2028 15.4529" stroke="black" stroke-width="4" stroke-linecap="round"/>
<path d="M8.65955 9.80182L14.3107 15.4529" stroke="black" stroke-width="4" stroke-linecap="round"/>
<path d="M8.65955 41.7119L14.3107 36.0608" stroke="black" stroke-width="4" stroke-linecap="round"/>
<path d="M42.8539 41.7119L37.2028 36.0608" stroke="black" stroke-width="4" stroke-linecap="round"/>
<path d="M49.9514 25.7854L41.9595 25.7854" stroke="black" stroke-width="4" stroke-linecap="round"/>
<path d="M9.99194 25.7854L2.00004 25.7854" stroke="black" stroke-width="4" stroke-linecap="round"/>
<path d="M25.785 41.0081L25.785 49" stroke="black" stroke-width="4" stroke-linecap="round"/>
<circle cx="21.7883" cy="20.6484" r="2.85425" fill="black"/>
<circle cx="32.0641" cy="26.3569" r="2.85425" fill="black"/>
<circle cx="21.7883" cy="32.0654" r="2.85425" fill="black"/>
</svg>
