<svg width="36" height="36" viewBox="0 0 36 36" fill="none" xmlns="http://www.w3.org/2000/svg">
<path d="M17.9551 33C26.2393 33 32.9551 26.2843 32.9551 18C32.9551 9.71573 26.2393 3 17.9551 3C9.67081 3 2.95508 9.71573 2.95508 18C2.95508 26.2843 9.67081 33 17.9551 33Z" fill="#E7FB4C" stroke="black" stroke-width="4" stroke-linecap="round" stroke-linejoin="round"/>
<path d="M10.8145 24C12.3895 26.265 15.0295 27.75 17.9995 27.75C20.9695 27.75 23.5945 26.265 25.1845 24" stroke="black" stroke-width="4" stroke-linecap="round" stroke-linejoin="round"/>
<path d="M15.0664 17.25C13.3997 15.5833 10.6831 15.5833 8.99974 17.25L15.0664 17.25Z" fill="#19B6FB"/>
<path d="M15.0664 17.25C13.3997 15.5833 10.6831 15.5833 8.99974 17.25" stroke="black" stroke-width="4" stroke-miterlimit="10" stroke-linecap="round" stroke-linejoin="round"/>
<path d="M27.0664 17.25C25.3997 15.5833 22.6831 15.5833 20.9997 17.25L27.0664 17.25Z" fill="#19B6FB"/>
<path d="M27.0664 17.25C25.3997 15.5833 22.6831 15.5833 20.9997 17.25" stroke="black" stroke-width="4" stroke-miterlimit="10" stroke-linecap="round" stroke-linejoin="round"/>
</svg>
